# xmcd
#
# Track frame offsets:
#	150
#	16133
#	44267
#	52131
#	75848
#	93737
#	110122
#
# Disc length: 1790 seconds
#
# Revision: 0
# Processed by: cddbd v1.5.2PL0 Copyright (c) Steve Scherf et al.
# Submitted via: audiograbber 1.83.01
#
DISCID=5206fc07
DTITLE=Andreas Schulz - Blue
DYEAR=1995
DGENRE=Blues
TTITLE0=Take the A-train
TTITLE1=Slabo day
TTITLE2=Mama don't low
TTITLE3=Blue in blue
TTITLE4=I shall be released
TTITLE5=Blue in black
TTITLE6=Take five
EXTD=
EXTT0=
EXTT1=
EXTT2=
EXTT3=
EXTT4=
EXTT5=
EXTT6=
PLAYORDER=
